<?xml version="1.0" encoding="UTF-8"?>
<svg version="1.1" viewBox="0 0 2048 1050" width="1280" height="1280" xmlns="http://www.w3.org/2000/svg">
<path transform="translate(1017,133)" d="m0 0h17l14 2 17 6 13 7 13 10 144 144v1h-419l6-7 140-140 12-9 16-8 13-4z" fill="#8B8D8C"/>
<path transform="translate(1232,566)" d="m0 0h3l-2 4-5 5h-2l-2 4-133 133-10 8-14 8-13 5-19 4h-20l-16-3-16-6-13-8-11-9-143-143v-1z" fill="#8B8D8C"/>
<path transform="translate(1156,133)" d="m0 0h17l17 3 17 6 13 8 11 9 143 143v1h-131l-144-144 5-5 15-10 11-5 14-4z" fill="#F06C29"/>
<path transform="translate(1372,566)" d="m0 0h2l-2 4-145 145-13 9-15 7-14 4-12 2h-17l-17-3-16-6-14-8-9-7 3-5 141-141z" fill="#F06C29"/>
<path transform="translate(878,133)" d="m0 0h17l16 3 12 4 17 9 9 7-2 4-136 136-5 4-2 3h-127l2-4 139-139 14-11 14-8 15-5z" fill="#F06C29"/>
<path transform="translate(677,567)" d="m0 0h126l8 7 2 4 3 1 4 4v2l3 1 125 125 1 3-12 9-19 9-23 5h-18l-20-4-15-6-14-9-20-18-131-131z" fill="#F06C29"/>
<path transform="translate(1174,343)" d="m0 0h26l14 3 15 6 12 8 9 9 2 5v9l-6 9-8 4h-8l-9-6-9-7-12-5-8-2h-10l-16 4-10 5-10 8-9 11-6 13-3 14v13l3 16 8 16 9 10 14 8 16 4h15l14-3 10-4 5-3 1-2 1-30h-44l-8-5-3-6v-10l4-7 5-4 3-1h61l10 6 3 5v66l-4 7-7 7-16 9-18 6-13 2h-26l-20-4-15-6-13-9-13-13-8-14-5-13-4-20v-26l4-20 7-16 9-13 7-8h2l1-3 12-9 16-8 16-5z" fill="#F06C29"/>
<path transform="translate(913,360)" d="m0 0 9 1 8 6 10 13 12 17 14 19 13 18 2 5h3l2-5 13-17 13-19 10-13 12-17 7-6 3-1h8l6 3 4 5 1 2v148l-4 7-5 3h-11l-6-4-3-5-1-6v-83l1-4-5 4-9 12-10 13-14 18-7 7-3 1h-10l-6-4-11-15-11-16-12-17-2-3-1 92-5 7-6 3h-11l-6-4-3-5v-150l7-8z" fill="#010101"/>
<path transform="translate(165,335)" d="m0 0h17l14 2 13 4 13 7 6 5 4 8v8l-4 7-5 4-3 1h-7l-17-8-14-4-17-1-12 3-8 5-5 10v9l4 7 8 6 15 6 28 8 18 7 12 7 10 9 6 10 3 11v19l-3 11-6 12-9 10-10 7-12 5-16 4-8 1h-22l-20-4-16-6-10-6-7-7-3-6v-11l4-7 5-4 5-2 7 1 18 10 15 5 11 2h16l9-2 8-5 5-6 3-7v-8l-5-8-9-6-19-7-27-8-13-5-13-8-7-6-8-14-2-7v-22l4-13 7-11 10-9 15-8 15-4z" fill="#010101"/>
<path transform="translate(1518,357)" d="m0 0h25l16 4 14 6 12 8 12 11 9 13 5 10 4 12 2 13v23l-4 18-5 12-7 12-9 10-7 6-13 8-16 6-16 3h-22l-18-4-16-7-11-8-14-14-9-16-5-16-2-12v-18l3-18 5-14 8-14 12-13 11-8 16-8 13-4zm2 32-13 4-13 8-7 7-8 14-3 11-1 8v9l2 12 5 12 8 11 7 6 10 6 13 4h20l15-5 11-7 9-9 5-8 5-16 1-7v-8l-4-18-5-10-8-10-10-7-11-5-8-2z" fill="#F06C29"/>
<path transform="translate(1299,363)" d="m0 0h79l11 3 11 6 6 5 9 13 5 14 1 5v16l-3 11-4 9-6 8-7 7-8 4h-2l3 5 14 17 12 15 4 7 1 6-3 9-5 5-6 2-9-1-6-4-11-15-15-22-11-16-37-1v49l-5 7-8 3-10-1-5-3-4-8v-144l3-6zm24 29-1 1v49h50l9-4 6-7 3-8v-13l-3-8-9-8-8-2z" fill="#F06C29"/>
<path transform="translate(433,363)" d="m0 0h78l12 3 12 7 8 8 6 10 4 10 2 12v9l-3 14-6 12-9 10-10 6h-3l8 10 13 16 12 16 1 3v10l-4 6-5 4-10 1-8-4-7-8-16-24-11-16-4-6-37-1v48l-4 6-3 3-11 2-9-3-5-8v-146l4-6zm23 29v50h49l8-3 5-4 4-6 2-7v-11l-4-10-8-7-9-2z" fill="#010101"/>
<path transform="translate(592,363)" d="m0 0h96l7 4 4 8-1 10-5 7-5 2-6 1h-67v35h64l6 3 5 8v8l-4 8-4 4-3 1h-64v35h76l6 3 5 6 1 2v11l-4 6-6 4h-102l-7-7-1-2-1-15v-107l1-26 7-8z" fill="#010101"/>
<path transform="translate(796,361)" d="m0 0h7l8 4 6 10 13 26 11 23 17 34 11 23 12 24 2 6-1 9-6 7-7 3-10-1-5-5-4-7-8-16h-87l-3 9-7 14-5 4-5 2h-10l-8-7-2-4v-9l7-16 10-19 16-32 9-19 10-19 11-23 8-14 7-6zm3 50-10 19-17 35v2h53l-10-23-13-29-2-4z" fill="#010101"/>
<path transform="translate(1833,360)" d="m0 0h61l13 2 13 5 11 8 8 9 6 13 3 10 1 7v15l-4 17-6 11-8 10-14 9-13 4-7 1h-45v31l-2 9-6 7-2 1h-12l-6-4-3-3-2-6v-142l4-8 5-4zm19 31-1 56 1 4h38l9-2 8-5 8-9 3-9v-9l-4-12-7-8-10-5-7-1z" fill="#F06C29"/>
<path transform="translate(1656,362)" d="m0 0h9l6 3 4 5 1 2 1 98 3 10 6 9 8 6 8 4 5 1h21l12-5 8-7 5-10 2-10v-86l1-10 5-7 6-3h10l6 4 3 3 1 3v105l-4 16-6 11-8 10-9 7-16 8-16 4h-25l-15-4-16-8-10-8-9-12-5-11-3-12v-106l5-7z" fill="#F06C29"/>
<path transform="translate(269,362)" d="m0 0h122l6 3 4 5 1 3v10l-4 6-5 4h-45v124l-3 7-5 5-5 1h-8l-6-3-4-4-1-3-1-13v-113l-46-1-6-4-4-8v-7l4-8z"/>
<path transform="translate(608,837)" d="m0 0h28l10 3 7 5 6 10 1 3v15l-3 8-5 6-8 5-6 2-17 1-1 22h-12zm13 12-1 1v32l4 1h8l8-2 5-4 3-6v-11l-4-6-5-4-3-1z" fill="#8F9190"/>
<path transform="translate(902,860)" d="m0 0h15l8 3 8 8 4 8 2 13-2 2h-43l6 9 4 2h10l14-2h5l1 2-5 6-6 4-7 2h-14l-9-4-8-9-3-8-1-10 4-13 7-8zm3 11-8 5-4 7h33l-2-5-7-6-2-1z" fill="#909291"/>
<path transform="translate(1301,860)" d="m0 0h15l9 4 8 9 4 11v9l-5 1h-39l3 6 5 4 2 1h9l15-2h5v3l-7 7-10 4h-14l-7-3-8-7-5-9-1-5v-8l3-10 6-8 5-4zm2 11-8 6-3 4v2h33l-4-7-7-5z" fill="#909291"/>
<path transform="translate(691,860)" d="m0 0h7l10 4 2 1v-5h11v57h-10l-1-4-11 4h-12l-8-3-8-7-4-7-2-6v-11l4-10 7-8 9-4zm-2 11-8 5-4 6-1 3v8l3 6 5 5 4 2h9l8-5 4-6 1-10-4-8-7-5-3-1z" fill="#8E908F"/>
<path transform="translate(1054,837)" d="m0 0h12l9 2 8 5-1 5-3 6-5-1-5-3-4-1h-9l-9 3-7 5-5 8-2 7v9l3 9 7 8 7 4 4 1h12l9-4 4-1 4 8-1 4-10 5-4 1h-16l-10-3-10-7-6-8-5-10-1-3v-17l4-11 6-8 9-8 10-4z" fill="#8F9190"/>
<path transform="translate(1110,860)" d="m0 0h13l8 3 7 6 5 9 1 3v15l-3 8-8 9-6 3-5 1h-12l-8-3-7-6-5-8-2-13 2-10 6-9 8-6zm2 11-8 5-4 7-1 8 3 8 6 5 5 2h7l8-4 5-8v-11l-5-8-7-4z" fill="#909291"/>
<path transform="translate(1218,860)" d="m0 0h11l1 2 5-1 3-1h12l10 4 7 7 4 9 1 7v29l-1 1h-10l-1-1-1-34-4-6-7-4h-8l-6 4-3 5-1 35-1 1h-10l-1-1z" fill="#969897"/>
<path transform="translate(820,860)" d="m0 0h10l1 3 9-3h12l9 4 5 4 5 8 2 7v34h-11l-1-33-3-6-6-5-2-1h-8l-5 3h-2l-2 4-1 3-1 35h-11z" fill="#8D8F8E"/>
<path transform="translate(1156,859)" d="m0 0 9 1v4l10-4h12l9 4 7 7 4 9 1 4v32l-1 1h-10l-1-33-3-6-6-5-3-1h-7l-7 4-4 8-1 33h-10v-57z" fill="#8C8E8D"/>
<path transform="translate(783,831)" d="m0 0h11l1 1v28h14v11h-14l-1 46h-11v-46h-15l-1-4 1-7h15z" fill="#8E908F"/>
<path transform="translate(1417,831)" d="m0 0h10l1 1v27l14 1 1 1v8l-1 2h-14v45l-1 1h-10l-1-1v-45h-15v-11h15v-27z" fill="#8F9190"/>
<path transform="translate(1368,860)" d="m0 0h13l10 4 1 4-4 8-5-2-4-2h-9l-8 5-4 8v7l4 8 6 4 3 1h7l7-4 4 1 2 5v5l-7 4-4 1h-12l-10-4-5-4-6-10-2-11 2-10 4-8 7-6z" fill="#909291"/>
<path transform="translate(946,860)" d="m0 0h11v4l13-4h5v10l-10 5-5 6-2 12v23l-1 1h-10l-1-1z" fill="#949695"/>
<path transform="translate(729,860)" d="m0 0h11l2 4 7-3h9v9l-10 5-5 6-2 9-1 27h-10l-1-1z" fill="#8D8F8E"/>
</svg>
